<svg width="24" height="25" viewBox="0 0 24 25" fill="none" xmlns="http://www.w3.org/2000/svg">
<mask id="mask0_2981_36064" style="mask-type:alpha" maskUnits="userSpaceOnUse" x="0" y="0" width="24" height="25">
<rect y="0.5" width="24" height="24" fill="#D9D9D9"/>
</mask>
<g mask="url(#mask0_2981_36064)">
<path d="M8.81225 22.3655L7.02765 19.3578L3.6392 18.6155L3.96998 15.127L1.67383 12.5001L3.96998 9.87322L3.6392 6.38477L7.02765 5.64247L8.81225 2.63477L12.0007 3.98862L15.1892 2.63477L16.9738 5.64247L20.3622 6.38477L20.0314 9.87322L22.3276 12.5001L20.0314 15.127L20.3622 18.6155L16.9738 19.3578L15.1892 22.3654L12.0007 21.0116L8.81225 22.3655ZM10.9507 15.7039L16.2545 10.4001L15.2007 9.31552L10.9507 13.5655L8.8007 11.4463L7.74688 12.5001L10.9507 15.7039Z" fill="#466EFC"/>
</g>
</svg>
